{
  "accessors": [
    {
      "bufferView": 1,
      "componentType": 5126,
      "count": 27058,
      "max": [
        3.7683048248291016,
        5.019787788391113,
        6.866394519805908
      ],
      "min": [
        -3.785614490509033,
        -3.651822090148926,
        -7.220654487609863
      ],
      "type": "VEC3"
    },
    {
      "bufferView": 1,
      "byteOffset": 324696,
      "componentType": 5126,
      "count": 27058,
      "max": [
        0.9998813271522522,
        0.9999874234199524,
        0.9999920725822449
      ],
      "min": [
        -0.9999847412109375,
        -0.9998424053192139,
        -0.9998443126678467
      ],
      "type": "VEC3"
    },
    {
      "bufferView": 0,
      "componentType": 5125,
      "count": 162282,
      "type": "SCALAR"
    }
  ],
  "asset": {
    "extras": {
      "author": "tyhenry (https://sketchfab.com/tyhenry)",
      "license": "CC-BY-4.0 (http://creativecommons.org/licenses/by/4.0/)",
      "source": "https://sketchfab.com/3d-models/worshipper-smooth-170b73975a5e41e39a5bb3ea1c741505",
      "title": "Worshipper - Smooth"
    },
    "generator": "Sketchfab-12.66.0",
    "version": "2.0"
  },
  "bufferViews": [
    {
      "buffer": 0,
      "byteLength": 649128,
      "name": "floatBufferViews",
      "target": 34963
    },
    {
      "buffer": 0,
      "byteLength": 649392,
      "byteOffset": 649128,
      "byteStride": 12,
      "name": "floatBufferViews",
      "target": 34962
    }
  ],
  "buffers": [
    {
      "byteLength": 1298520,
      "uri": "scene.bin"
    }
  ],
  "materials": [
    {
      "doubleSided": true,
      "name": "material_0",
      "pbrMetallicRoughness": {
        "baseColorFactor": [
          0.30026978286695144,
          0.30026978286695144,
          0.30026978286695144,
          1.0
        ],
        "metallicFactor": 0.0,
        "roughnessFactor": 0.6
      }
    }
  ],
  "meshes": [
    {
      "name": "Object_0",
      "primitives": [
        {
          "attributes": {
            "NORMAL": 1,
            "POSITION": 0
          },
          "indices": 2,
          "material": 0,
          "mode": 4
        }
      ]
    }
  ],
  "nodes": [
    {
      "children": [
        1
      ],
      "matrix": [
        -0.00011741702473955229,
        -2.220446049250313e-16,
        1.0,
        0.0,
        1.0,
        -2.6071816869766515e-20,
        0.00011741702473955229,
        0.0,
        0.0,
        1.0,
        2.220446049250313e-16,
        0.0,
        -0.6926484704017639,
        1.49972358153286e-16,
        -0.6754154562950134,
        1.0
      ],
      "name": "Sketchfab_model"
    },
    {
      "children": [
        2
      ],
      "name": "worshipper_smooth.obj.cleaner.materialmerger.gles"
    },
    {
      "mesh": 0,
      "name": "Object_2"
    }
  ],
  "scene": 0,
  "scenes": [
    {
      "name": "Sketchfab_Scene",
      "nodes": [
        0
      ]
    }
  ]
}
